<?xml version="1.0" encoding="UTF-8" standalone="no"?>
<!-- Created with Inkscape (http://www.inkscape.org/) -->

<svg
   width="152.12166mm"
   height="159.53001mm"
   viewBox="0 0 152.12166 159.53001"
   version="1.1"
   id="svg1"
   xml:space="preserve"
   inkscape:version="1.3.2 (091e20e, 2023-11-25)"
   sodipodi:docname="gleam-logo-bw-full.svg"
   inkscape:export-filename="lgleam-logo-bw-full.png"
   inkscape:export-xdpi="96"
   inkscape:export-ydpi="96"
   xmlns:inkscape="http://www.inkscape.org/namespaces/inkscape"
   xmlns:sodipodi="http://sodipodi.sourceforge.net/DTD/sodipodi-0.dtd"
   xmlns="http://www.w3.org/2000/svg"
   xmlns:svg="http://www.w3.org/2000/svg"><sodipodi:namedview
     id="namedview1"
     pagecolor="#ffffff"
     bordercolor="#000000"
     borderopacity="0.25"
     inkscape:showpageshadow="2"
     inkscape:pageopacity="0.0"
     inkscape:pagecheckerboard="0"
     inkscape:deskcolor="#d1d1d1"
     inkscape:document-units="mm"
     inkscape:zoom="0.5"
     inkscape:cx="609"
     inkscape:cy="636"
     inkscape:window-width="1440"
     inkscape:window-height="870"
     inkscape:window-x="0"
     inkscape:window-y="367"
     inkscape:window-maximized="0"
     inkscape:current-layer="layer1"
     inkscape:export-bgcolor="#ffffff00" /><defs
     id="defs1" /><g
     inkscape:label="Layer 1"
     inkscape:groupmode="layer"
     id="layer1"
     transform="translate(-28.939164,-68.734991)"><rect
       style="fill:#ffffff;fill-opacity:1;stroke:none;stroke-width:0.19756;stroke-dasharray:none;stroke-opacity:1"
       id="rect4"
       width="152.12167"
       height="159.53001"
       x="28.939163"
       y="68.734993"
       inkscape:label="frame"
       inkscape:export-filename="./rect4.png"
       inkscape:export-xdpi="96"
       inkscape:export-ydpi="96" /><g
       id="g4"
       transform="translate(-2.9670566,5.8252793)"><path
         style="fill:#000000"
         d="m 103.24461,160.78958 c -7.800977,-0.90159 -15.648856,-3.78051 -20.687036,-7.58886 -7.98572,-6.03639 -12.88618,-14.3703 -15.14009,-25.74784 -0.97124,-4.90275 -0.87518,-16.72495 0.17539,-21.58591 2.91486,-13.486906 9.46772,-22.439011 20.35147,-27.802862 8.246332,-4.064052 17.969396,-5.528479 29.154986,-4.391142 10.09035,1.025975 16.47901,3.468893 21.15367,8.088805 3.26599,3.227745 4.28722,5.463108 4.27386,9.355003 -0.0204,5.939592 -3.46748,10.174986 -8.98544,11.040286 -5.8863,0.92306 -11.68987,-2.205172 -13.13803,-7.081645 -0.69821,-2.351124 -0.67411,-3.269259 0.1976,-7.526474 0.67278,-3.285688 0.68768,-3.670435 0.18845,-4.865261 -0.413,-0.988451 -0.94399,-1.481721 -2.2297,-2.071302 -1.48292,-0.680008 -2.28668,-0.773533 -6.6265,-0.771052 -4.32208,0.0025 -5.19159,0.103865 -6.96226,0.81188 -10.43481,4.172415 -16.017346,16.535684 -15.317806,33.923294 0.93401,23.21564 8.261533,37.01001 21.105926,39.7328 5.0914,1.07929 9.14052,0.21099 11.48894,-2.46371 1.71489,-1.95315 1.97308,-3.2504 1.75959,-8.84076 -0.3972,-10.40082 -3.71546,-18.17129 -9.30281,-21.78471 -2.35327,-1.52189 -2.70509,-2.235 -1.59728,-3.23756 0.58206,-0.52676 2.35641,-0.58384 18.14724,-0.58384 10.70558,0 17.58274,0.13048 17.70976,0.33602 0.11422,0.18481 -0.3485,1.06465 -1.02827,1.9552 -2.43191,3.18596 -3.00434,6.78239 -3.00434,18.87544 0,12.19459 0.70164,16.33617 3.20517,18.91916 2.18641,2.2558 2.23747,2.2467 -12.64488,2.25445 -10.21455,0.005 -13.98778,0.12855 -16.15065,0.52748 -3.50479,0.64643 -12.50045,0.93877 -16.09696,0.52311 z"
         id="path7"
         inkscape:label="gleam-g" /><path
         d="m 49.33228,190.97781 c -6.405277,0 -11.044613,4.87879 -11.044613,10.53578 0,5.47741 4.340024,10.53579 11.074544,10.53579 5.956309,0 9.158947,-4.19037 9.308603,-4.48968 v -7.54267 H 48.135032 v 3.77134 h 6.195758 v 1.97546 c -1.077523,1.01766 -2.813532,1.70607 -4.99851,1.70607 -3.561813,0 -6.105965,-2.7836 -6.105965,-6.01617 0,-3.38222 2.48429,-5.86651 6.046103,-5.86651 2.334633,0 3.920987,0.71835 4.938648,2.00539 l 4.25023,-2.15505 c -2.035322,-2.69381 -5.208029,-4.45975 -9.129016,-4.45975 z m 24.573281,0.35918 h -4.908717 v 20.35321 h 15.594155 v -4.54954 H 73.905561 Z m 20.801984,0 V 211.6902 H 110.3017 v -4.54954 H 99.616262 v -3.50195 h 8.919498 v -4.25023 h -8.919498 v -3.50195 H 110.3017 v -4.54954 z M 137.3892,211.6902 h 5.23796 l -8.73991,-20.35321 h -5.47741 l -8.70998,20.35321 h 5.20803 l 1.3469,-3.1727 h 9.81744 z m -9.42833,-7.18349 3.23257,-7.60252 3.17271,7.60252 z m 49.68558,-13.16972 h -5.47741 l -7.06377,14.93567 -7.09369,-14.93567 h -5.44748 v 20.35321 h 4.90872 v -10.38612 l 4.87878,10.38612 h 5.47741 l 4.87879,-10.38612 v 10.38612 h 4.93865 z"
         id="text2"
         style="font-size:29.9312px;font-family:AXIS;-inkscape-font-specification:'AXIS, Normal';letter-spacing:6.61458px;stroke-width:0.350755"
         aria-label="GLEAM"
         inkscape:label="gleam-text" /></g></g></svg>
